<?xml version="1.0" encoding="UTF-8" standalone="no"?>
<!-- Created with Inkscape (http://www.inkscape.org/) -->
<svg
   xmlns:dc="http://purl.org/dc/elements/1.1/"
   xmlns:cc="http://web.resource.org/cc/"
   xmlns:rdf="http://www.w3.org/1999/02/22-rdf-syntax-ns#"
   xmlns:svg="http://www.w3.org/2000/svg"
   xmlns="http://www.w3.org/2000/svg"
   xmlns:xlink="http://www.w3.org/1999/xlink"
   xmlns:sodipodi="http://sodipodi.sourceforge.net/DTD/sodipodi-0.dtd"
   xmlns:inkscape="http://www.inkscape.org/namespaces/inkscape"
   width="23.999966"
   height="24"
   id="svg2"
   sodipodi:version="0.32"
   inkscape:version="0.44"
   sodipodi:docbase="~"
   sodipodi:docname="syndie-logo-small.svg"
   inkscape:export-xdpi="90.00013"
   inkscape:export-ydpi="90.00013"
   version="1.0">
  <defs
     id="defs4">
    <linearGradient
       id="linearGradient2828">
      <stop
         style="stop-color:#173562;stop-opacity:1;"
         offset="0"
         id="stop2830" />
      <stop
         id="stop2836"
         offset="0.03"
         style="stop-color:#204a87;stop-opacity:0.30927834;" />
      <stop
         style="stop-color:#204a87;stop-opacity:0;"
         offset="1"
         id="stop2832" />
    </linearGradient>
    <linearGradient
       id="linearGradient2820">
      <stop
         style="stop-color:#173562;stop-opacity:1;"
         offset="0"
         id="stop2822" />
      <stop
         style="stop-color:#204a87;stop-opacity:0;"
         offset="1"
         id="stop2824" />
    </linearGradient>
    <linearGradient
       id="linearGradient4605">
      <stop
         style="stop-color:#a2ab9b;stop-opacity:1;"
         offset="0"
         id="stop4607" />
      <stop
         id="stop4613"
         offset="0.38999999"
         style="stop-color:#e3e8df;stop-opacity:1;" />
      <stop
         style="stop-color:#e2e7de;stop-opacity:1;"
         offset="0.61000001"
         id="stop4615" />
      <stop
         style="stop-color:#b5bcaf;stop-opacity:1;"
         offset="1"
         id="stop4609" />
    </linearGradient>
    <linearGradient
       id="linearGradient3394">
      <stop
         style="stop-color:#888a85;stop-opacity:1;"
         offset="0"
         id="stop3396" />
      <stop
         style="stop-color:#888a85;stop-opacity:0;"
         offset="1"
         id="stop3398" />
    </linearGradient>
    <linearGradient
       id="linearGradient3386">
      <stop
         style="stop-color:#bebfbc;stop-opacity:1;"
         offset="0"
         id="stop3388" />
      <stop
         style="stop-color:#888a85;stop-opacity:0;"
         offset="1"
         id="stop3390" />
    </linearGradient>
    <linearGradient
       inkscape:collect="always"
       xlink:href="#linearGradient4605"
       id="linearGradient3278"
       gradientUnits="userSpaceOnUse"
       gradientTransform="matrix(9.609062e-2,0,0,7.548901e-2,215.1637,619.5335)"
       x1="279.48105"
       y1="619.21051"
       x2="322.40863"
       y2="609.97394" />
    <linearGradient
       inkscape:collect="always"
       xlink:href="#linearGradient3394"
       id="linearGradient3282"
       gradientUnits="userSpaceOnUse"
       gradientTransform="matrix(0.138522,0,0,7.548901e-2,198.5299,618.8512)"
       x1="375.375"
       y1="549.25"
       x2="375.375"
       y2="514.43866" />
    <linearGradient
       inkscape:collect="always"
       xlink:href="#linearGradient3386"
       id="linearGradient3285"
       gradientUnits="userSpaceOnUse"
       gradientTransform="matrix(0.138522,0,0,7.548901e-2,198.5299,618.8512)"
       x1="377.40625"
       y1="373.29721"
       x2="377.40625"
       y2="467.04077" />
    <linearGradient
       inkscape:collect="always"
       xlink:href="#linearGradient2828"
       id="linearGradient3289"
       gradientUnits="userSpaceOnUse"
       gradientTransform="matrix(7.561839e-2,0,0,7.548901e-2,219.9856,618.8512)"
       x1="299.85938"
       y1="440.59375"
       x2="299.85938"
       y2="471.42984" />
    <linearGradient
       inkscape:collect="always"
       xlink:href="#linearGradient2820"
       id="linearGradient3292"
       gradientUnits="userSpaceOnUse"
       gradientTransform="matrix(7.561839e-2,0,0,7.548901e-2,219.9856,618.8512)"
       x1="287.97052"
       y1="541.5"
       x2="287.97052"
       y2="491.01144" />
  </defs>
  <sodipodi:namedview
     id="base"
     pagecolor="#ffffff"
     bordercolor="#666666"
     borderopacity="1.0"
     gridtolerance="50"
     guidetolerance="10"
     objecttolerance="50"
     inkscape:pageopacity="0.0"
     inkscape:pageshadow="2"
     inkscape:zoom="21.011281"
     inkscape:cx="19.860648"
     inkscape:cy="11.480778"
     inkscape:document-units="px"
     inkscape:current-layer="layer2"
     inkscape:window-width="1272"
     inkscape:window-height="746"
     inkscape:window-x="0"
     inkscape:window-y="25"
     showguides="true"
     inkscape:guide-bbox="false"
     inkscape:guide-points="false"
     width="744.09003px"
     height="24px"
     inkscape:showpageshadow="false"
     inkscape:grid-bbox="false"
     inkscape:object-paths="false"
     inkscape:object-points="false"
     inkscape:object-bbox="false"
     inkscape:object-nodes="false" />
  <metadata
     id="metadata7">
    <rdf:RDF>
      <cc:Work
         rdf:about="">
        <dc:format>image/svg+xml</dc:format>
        <dc:type
           rdf:resource="http://purl.org/dc/dcmitype/StillImage" />
        <dc:title>Syndie Logo - Small</dc:title>
        <dc:date>2007</dc:date>
        <dc:creator>
          <cc:Agent>
            <dc:title>jadeSerpent</dc:title>
          </cc:Agent>
        </dc:creator>
        <dc:rights>
          <cc:Agent>
            <dc:title>Public Domain</dc:title>
          </cc:Agent>
        </dc:rights>
        <cc:license
           rdf:resource="http://web.resource.org/cc/PublicDomain" />
        <dc:subject>
          <rdf:Bag>
            <rdf:li>syndie</rdf:li>
          </rdf:Bag>
        </dc:subject>
      </cc:Work>
      <cc:License
         rdf:about="http://web.resource.org/cc/PublicDomain">
        <cc:permits
           rdf:resource="http://web.resource.org/cc/Reproduction" />
        <cc:permits
           rdf:resource="http://web.resource.org/cc/Distribution" />
        <cc:permits
           rdf:resource="http://web.resource.org/cc/DerivativeWorks" />
      </cc:License>
    </rdf:RDF>
  </metadata>
  <g
     inkscape:groupmode="layer"
     id="layer7"
     inkscape:label="Buttstock"
     style="opacity:1;display:inline"
     transform="translate(-236.9375,-646.5771)" />
  <g
     inkscape:groupmode="layer"
     id="layer11"
     inkscape:label="Buttstock Shading"
     style="opacity:1;display:inline"
     transform="translate(-236.9375,-646.5771)" />
  <g
     inkscape:groupmode="layer"
     id="layer6"
     inkscape:label="Cone"
     style="opacity:1;display:inline"
     transform="translate(-236.9375,-646.5771)" />
  <g
     inkscape:groupmode="layer"
     id="layer1"
     inkscape:label="Cone Shading"
     style="opacity:1;display:inline"
     transform="translate(-236.9375,-646.5771)" />
  <g
     inkscape:groupmode="layer"
     id="layer5"
     inkscape:label="Cone Rim"
     style="display:inline"
     transform="translate(-236.9375,-646.5771)" />
  <g
     inkscape:groupmode="layer"
     id="layer10"
     inkscape:label="Handle"
     style="display:inline"
     transform="translate(-236.9375,-646.5771)" />
  <g
     inkscape:groupmode="layer"
     id="layer2"
     inkscape:label="Handle Base"
     style="display:inline"
     transform="translate(-236.9375,-646.5771)">
    <g
       id="g1927">
      <path
         sodipodi:nodetypes="ccccc"
         id="path3183"
         d="M 237.93748,652.11072 L 237.93748,659.72794 L 245.62003,659.71752 L 245.62003,652.11839 L 237.93748,652.11072 z "
         style="fill:#3465a4;stroke:none;stroke-linecap:round;stroke-linejoin:round;stroke-opacity:1;display:inline" />
      <path
         sodipodi:nodetypes="ccccc"
         id="path11702"
         d="M 245.62003,657.98808 L 237.93748,657.98808 L 237.93748,659.72794 L 245.62003,659.71752 L 245.62003,657.98808 z "
         style="fill:url(#linearGradient3292);fill-opacity:1;stroke:none;stroke-linecap:round;stroke-linejoin:round;stroke-opacity:1;display:inline" />
      <path
         sodipodi:nodetypes="ccccc"
         id="path6142"
         d="M 237.93748,652.11072 L 237.93748,652.939 L 245.58221,652.939 L 245.62003,652.11839 L 237.93748,652.11072 z "
         style="fill:url(#linearGradient3289);fill-opacity:1;stroke:none;stroke-linecap:round;stroke-linejoin:round;stroke-opacity:1;display:inline" />
      <path
         sodipodi:nodetypes="cccccc"
         id="path3185"
         d="M 259.53858,655.91895 L 259.51154,664.06181 C 258.56018,661.97042 255.30813,659.44471 245.62002,659.44471 L 245.62002,652.39314 C 255.32874,652.39314 258.58103,650.00069 259.51154,647.72759 L 259.53858,655.91895 z "
         style="fill:#d3d7cf;stroke:none;stroke-width:2.36804867;stroke-linecap:round;stroke-linejoin:round;stroke-miterlimit:4;stroke-dasharray:none;stroke-opacity:1;display:inline" />
      <path
         sodipodi:nodetypes="ccccc"
         id="path2499"
         d="M 259.39705,647.72741 C 258.54749,650.18928 255.28799,652.39381 245.57099,652.39381 L 245.54817,653.68141 C 253.72643,653.68141 255.93048,653.69962 259.41875,654.42724 L 259.39705,647.72741 z "
         style="fill:url(#linearGradient3285);fill-opacity:1;stroke:none;stroke-width:2.36804867;stroke-linecap:round;stroke-linejoin:round;stroke-miterlimit:4;stroke-dasharray:none;stroke-opacity:1;display:inline" />
      <path
         sodipodi:nodetypes="ccccc"
         id="path2486"
         d="M 259.41875,657.46801 C 255.93623,658.19256 253.70244,658.1552 245.54817,658.1552 L 245.57099,659.44484 C 255.31307,659.44484 258.57435,662.00866 259.39705,664.061 L 259.41875,657.46801 z "
         style="fill:url(#linearGradient3282);fill-opacity:1;stroke:none;stroke-width:2.36804867;stroke-linecap:round;stroke-linejoin:round;stroke-miterlimit:4;stroke-dasharray:none;stroke-opacity:1;display:inline" />
      <path
         sodipodi:nodetypes="czzzz"
         id="path3165"
         d="M 259.41875,647.68047 C 258.74491,647.68047 258.90695,648.61693 258.90695,655.91809 C 258.90695,663.21924 258.74491,664.15809 259.41875,664.15809 C 260.03667,664.15809 259.93054,663.21924 259.93054,655.91809 C 259.93054,648.61693 260.03667,647.68047 259.41875,647.68047 z "
         style="fill:#babdb6;fill-opacity:1;stroke:none;stroke-linecap:round;stroke-linejoin:round;stroke-opacity:1;display:inline" />
      <path
         sodipodi:nodetypes="ccssssssc"
         id="rect1944"
         d="M 241.90162,662.17843 L 243.84607,660.36251 C 243.84607,660.36251 245.40772,661.7147 245.5049,662.09091 C 245.60045,662.46067 245.06752,662.77264 245.00534,663.24131 C 244.93972,663.73587 245.44614,666.39318 245.69271,666.9273 C 246.19644,668.01856 246.04686,667.41055 246.14096,667.79598 C 246.24754,668.23239 243.53278,670.26881 243.42143,669.13421 C 243.27951,667.68738 242.59963,666.14667 242.19617,664.37996 C 241.81609,662.71571 241.90162,662.17843 241.90162,662.17843 z "
         style="fill:url(#linearGradient3278);fill-opacity:1;fill-rule:evenodd;stroke:none;stroke-width:1;stroke-linecap:round;stroke-linejoin:round;stroke-miterlimit:4;stroke-opacity:1;display:inline" />
      <path
         sodipodi:nodetypes="czzcc"
         id="path1933"
         d="M 244.61882,659.75135 C 244.61882,659.75135 242.42755,662.73701 241.74081,662.71417 C 241.05452,662.6913 240.65223,662.32541 240.28122,661.54024 C 239.91025,660.75506 239.79375,659.75135 239.79375,659.75135 L 244.61882,659.75135 z "
         style="fill:#d3d7cf;fill-rule:evenodd;stroke:none;stroke-width:1;stroke-linecap:round;stroke-linejoin:round;stroke-miterlimit:4;stroke-opacity:1;display:inline" />
    </g>
    <path
       style="fill:none;stroke:#555753;stroke-linecap:round;stroke-linejoin:round;stroke-opacity:1;display:inline;stroke-width:2;stroke-miterlimit:4;stroke-dasharray:none"
       d="M 22.46875 1.09375 C 22.177742 1.09375 22.059591 1.3072147 22 2.09375 C 21.911103 2.2297399 21.796631 2.3677646 21.6875 2.5 C 21.585449 2.6121044 21.493621 2.7339146 21.375 2.84375 C 21.35264 2.8659761 21.335538 2.8841703 21.3125 2.90625 C 21.183297 3.0224135 21.055594 3.1372761 20.90625 3.25 C 20.882389 3.2688867 20.868188 3.2937486 20.84375 3.3125 C 19.482661 4.3136395 17.266881 5.1510221 13.78125 5.5625 C 12.321052 5.7267673 10.636867 5.8105223 8.6875 5.8125 L 8.6875 5.53125 L 1 5.53125 L 1 6.375 L 1 11.40625 L 1 13.15625 L 8.6875 13.125 L 8.6875 12.875 C 9.2728993 12.875689 9.8357307 12.887659 10.375 12.90625 C 10.394921 12.906905 10.417641 12.905571 10.4375 12.90625 C 10.973463 12.925472 11.508082 12.933117 12 12.96875 C 12.009982 12.96946 12.021285 12.968034 12.03125 12.96875 C 14.062841 13.11762 15.707187 13.410609 17.0625 13.78125 C 17.071765 13.78375 17.084514 13.778742 17.09375 13.78125 C 18.781268 14.245876 19.992019 14.856379 20.84375 15.5 C 20.850161 15.504727 20.868626 15.495268 20.875 15.5 C 21.364706 15.872824 21.725466 16.272709 22 16.65625 C 22.062326 17.383173 22.186666 17.59375 22.46875 17.59375 C 23.086669 17.59375 23 16.6449 23 9.34375 C 23 2.0425899 23.08667 1.09375 22.46875 1.09375 z M 2.84375 13.1875 C 2.84375 13.1875 2.97278 14.18357 3.34375 14.96875 C 3.71476 15.75392 4.1262101 16.10213 4.8125 16.125 C 4.8566026 16.126467 4.9132162 16.084261 4.96875 16.0625 C 4.9948775 16.404851 5.0599601 16.980375 5.25 17.8125 C 5.65346 19.57921 6.3268299 21.11567 6.46875 22.5625 C 6.5801 23.6971 9.3253303 21.65516 9.21875 21.21875 C 9.12465 20.83332 9.2537301 21.435009 8.75 20.34375 C 8.50343 19.80963 7.9968804 17.150811 8.0625 16.65625 C 8.12468 16.18758 8.65805 15.86976 8.5625 15.5 C 8.476478 15.166986 7.3758729 14.185191 7.09375 13.9375 C 7.4299243 13.512384 7.6874999 13.1875 7.6875 13.1875 L 2.84375 13.1875 z "
       id="path1990"
       transform="translate(236.9375,646.5771)" />
    <g
       id="g1968">
      <path
         style="fill:#3465a4;stroke:none;stroke-linecap:round;stroke-linejoin:round;stroke-opacity:1;display:inline"
         d="M 237.93748,652.11072 L 237.93748,659.72794 L 245.62003,659.71752 L 245.62003,652.11839 L 237.93748,652.11072 z "
         id="path1970"
         sodipodi:nodetypes="ccccc" />
      <path
         style="fill:url(#linearGradient3292);fill-opacity:1;stroke:none;stroke-linecap:round;stroke-linejoin:round;stroke-opacity:1;display:inline"
         d="M 245.62003,657.98808 L 237.93748,657.98808 L 237.93748,659.72794 L 245.62003,659.71752 L 245.62003,657.98808 z "
         id="path1972"
         sodipodi:nodetypes="ccccc" />
      <path
         style="fill:url(#linearGradient3289);fill-opacity:1;stroke:none;stroke-linecap:round;stroke-linejoin:round;stroke-opacity:1;display:inline"
         d="M 237.93748,652.11072 L 237.93748,652.939 L 245.58221,652.939 L 245.62003,652.11839 L 237.93748,652.11072 z "
         id="path1974"
         sodipodi:nodetypes="ccccc" />
      <path
         style="fill:#d3d7cf;stroke:none;stroke-width:2.36804867;stroke-linecap:round;stroke-linejoin:round;stroke-miterlimit:4;stroke-dasharray:none;stroke-opacity:1;display:inline"
         d="M 259.53858,655.91895 L 259.51154,664.06181 C 258.56018,661.97042 255.30813,659.44471 245.62002,659.44471 L 245.62002,652.39314 C 255.32874,652.39314 258.58103,650.00069 259.51154,647.72759 L 259.53858,655.91895 z "
         id="path1976"
         sodipodi:nodetypes="cccccc" />
      <path
         style="fill:url(#linearGradient3285);fill-opacity:1;stroke:none;stroke-width:2.36804867;stroke-linecap:round;stroke-linejoin:round;stroke-miterlimit:4;stroke-dasharray:none;stroke-opacity:1;display:inline"
         d="M 259.39705,647.72741 C 258.54749,650.18928 255.28799,652.39381 245.57099,652.39381 L 245.54817,653.68141 C 253.72643,653.68141 255.93048,653.69962 259.41875,654.42724 L 259.39705,647.72741 z "
         id="path1978"
         sodipodi:nodetypes="ccccc" />
      <path
         style="fill:url(#linearGradient3282);fill-opacity:1;stroke:none;stroke-width:2.36804867;stroke-linecap:round;stroke-linejoin:round;stroke-miterlimit:4;stroke-dasharray:none;stroke-opacity:1;display:inline"
         d="M 259.41875,657.46801 C 255.93623,658.19256 253.70244,658.1552 245.54817,658.1552 L 245.57099,659.44484 C 255.31307,659.44484 258.57435,662.00866 259.39705,664.061 L 259.41875,657.46801 z "
         id="path1980"
         sodipodi:nodetypes="ccccc" />
      <path
         style="fill:#babdb6;fill-opacity:1;stroke:none;stroke-linecap:round;stroke-linejoin:round;stroke-opacity:1;display:inline"
         d="M 259.41875,647.68047 C 258.74491,647.68047 258.90695,648.61693 258.90695,655.91809 C 258.90695,663.21924 258.74491,664.15809 259.41875,664.15809 C 260.03667,664.15809 259.93054,663.21924 259.93054,655.91809 C 259.93054,648.61693 260.03667,647.68047 259.41875,647.68047 z "
         id="path1982"
         sodipodi:nodetypes="czzzz" />
      <path
         style="fill:url(#linearGradient3278);fill-opacity:1;fill-rule:evenodd;stroke:none;stroke-width:1;stroke-linecap:round;stroke-linejoin:round;stroke-miterlimit:4;stroke-opacity:1;display:inline"
         d="M 241.90162,662.17843 L 243.84607,660.36251 C 243.84607,660.36251 245.40772,661.7147 245.5049,662.09091 C 245.60045,662.46067 245.06752,662.77264 245.00534,663.24131 C 244.93972,663.73587 245.44614,666.39318 245.69271,666.9273 C 246.19644,668.01856 246.04686,667.41055 246.14096,667.79598 C 246.24754,668.23239 243.53278,670.26881 243.42143,669.13421 C 243.27951,667.68738 242.59963,666.14667 242.19617,664.37996 C 241.81609,662.71571 241.90162,662.17843 241.90162,662.17843 z "
         id="path1984"
         sodipodi:nodetypes="ccssssssc" />
      <path
         style="fill:#d3d7cf;fill-rule:evenodd;stroke:none;stroke-width:1;stroke-linecap:round;stroke-linejoin:round;stroke-miterlimit:4;stroke-opacity:1;display:inline"
         d="M 244.61882,659.75135 C 244.61882,659.75135 242.42755,662.73701 241.74081,662.71417 C 241.05452,662.6913 240.65223,662.32541 240.28122,661.54024 C 239.91025,660.75506 239.79375,659.75135 239.79375,659.75135 L 244.61882,659.75135 z "
         id="path1986"
         sodipodi:nodetypes="czzcc" />
    </g>
  </g>
</svg>
